<svg xmlns="http://www.w3.org/2000/svg" viewBox="0 0 768.16 568.01"><defs><style>.cls-1,.cls-3{fill:#2e3191;}.cls-2,.cls-4{fill:#fff;}.cls-3{font-size:24px;font-family:Impact, Impact;letter-spacing:0.05em;}.cls-4{font-size:84px;font-family:HeadlineOneHPLHS, HeadlineOneHPLHS;}</style></defs><title>Asset 1</title><g id="Layer_2" data-name="Layer 2"><g id="Layer_1-2" data-name="Layer 1"><path class="cls-1" d="M219.73,383.15l23.86-18.69A504.72,504.72,0,0,1,218,289.85c-17.58-67.38-20.5-129.22-20.73-159.11,70.58-47.27,149.12-66.52,186.79-73.5,37.66,7,116.2,26.23,186.78,73.5a683.39,683.39,0,0,1-7.67,95A369.83,369.83,0,0,1,604,224.71c9.4-66.5,6.75-115,6.75-115C525.22,45.8,424.46,23.22,384.07,16.36c-40.4,6.86-141.16,29.44-226.73,93.35,0,0-7.9,144.66,52.06,276.88Z"/><path class="cls-1" d="M552.13,281.91c-.65,2.64-1.32,5.28-2,7.94-14,53.66-34.46,100.32-60.79,138.69-28.26,41.17-63.6,73-105.26,94.79-41.66-21.81-77-53.62-105.26-94.79-1.85-2.68-3.66-5.42-5.44-8.19l-42.2,8.2c33.62,57,82.33,108.1,152.9,139.46,132.43-58.86,188-187.28,211-293.26Z"/><path class="cls-1" d="M385.7,76.44c-79.84,0-144.79,64.95-144.79,144.78S305.86,366,385.7,366s144.79-64.95,144.79-144.79S465.54,76.44,385.7,76.44ZM524.17,221.22a139,139,0,0,1-2.7,27.25l-12.06-5.55V200.74l12.13-6.36A138.88,138.88,0,0,1,524.17,221.22Zm-276.95,0a138.1,138.1,0,0,1,2.64-26.84L262,200.74v42.18l-12.06,5.55A138.22,138.22,0,0,1,247.22,221.22Zm175.87,25.11L464.7,270l1.47,41.73L427,333.19l-37.84-18.1V266.36Zm-33.93-73.92V127.89l37.35-18.51,37.32,21.22v42l-41.18,22.51ZM426,240.6V200.87l41.6-22.76,34.83,21.5v44.16l-34.48,20.57Zm40.86-115.54-37.35-21.18v-14a138.51,138.51,0,0,1,47.89,27.68ZM306.7,270l41.61-23.69,33.93,20v48.73l-37.84,18.1-39.17-21.44Zm-3.22-5.68L269,243.77V199.61l34.83-21.5,41.6,22.76V240.6Zm45.26-69.25-41.18-22.51v-42l37.33-21.22,37.35,18.51v44.52Zm-6.82-91.21-37.35,21.18L294,117.56a138.42,138.42,0,0,1,47.89-27.68ZM302.51,317.11l39.41,21.64v13.82a138.54,138.54,0,0,1-48.61-28.3Zm127,21.64,39.41-21.64,9.19,7.16a138.41,138.41,0,0,1-48.6,28.3Z"/><path class="cls-1" d="M612.32,370.61c51.06.95,102.11,11.73,153.17,39-17.13-24.77-34.25-47.69-51.38-69a349.41,349.41,0,0,1,51.38-24.77c-51.06-27.25-102.11-38-153.17-39Z"/><path class="cls-1" d="M158.46,448.56c-51.06-.95-102.11-11.73-153.17-39a349.49,349.49,0,0,0,51.38-24.78c-17.13-21.32-34.25-44.23-51.38-69,51.06,27.25,102.11,38,153.17,39Z"/><path class="cls-1" d="M642.61,336.12C470.68,319,298.76,428.2,126.83,410.39V316.62c171.93,17.81,343.85-91.43,515.78-74.28Z"/><path class="cls-1" d="M126.83,410.39q15.81,19.77,31.63,38.17V412.3C147.92,412.1,137.37,411.49,126.83,410.39Z"/><path class="cls-1" d="M644,336.25q-15.81,16.5-31.63,34.36V334.35C622.86,334.55,633.41,335.16,644,336.25Z"/><polygon class="cls-1" points="514.67 405.51 359.04 460.96 382.29 553.99 494.99 453.81 514.67 405.51"/><polygon class="cls-1" points="271.38 76.36 240.97 165.8 169.42 192.63 173 117.5 271.38 76.36"/><path class="cls-1" d="M434.36,562.85C467.18,551,532.13,507.69,584.5,396c0,0,62.15-4.89,101.26,17.46C685.76,413.41,613.13,521.65,434.36,562.85Z"/><path class="cls-1" d="M178.77,435.06l-2.09,35.61c-9.08,1.68-26.08-.2-41.28-2.6,40.21,33.19,104.7,73.19,198.4,94.78-28.87-10.44-82.59-45.22-130.75-129.48Z"/><path class="cls-1" d="M693.67,164.34l43.93-25C760.31,61.86,768.16,0,768.16,0L636.88,106.15c1.87,46.73-5,93.11-9.78,118.71h32.12l.7,35.62,30,4.19c16.46-33.61,29.75-68.6,40.39-101.71Z"/><path class="cls-1" d="M131.29,106.15,0,0S7.56,62.3,29.5,139.57L73,164.34,36.46,163c16.37,52.49,39.25,109.43,70.62,157.34l.46-26.54,46.56,1.87C141.06,237,130.82,172.72,131.29,106.15Z"/><polygon class="cls-2" points="419.86 451.36 426.03 470.36 446.01 470.36 429.85 482.1 436.02 501.11 419.86 489.36 403.69 501.11 409.87 482.1 393.7 470.36 413.68 475.95 419.86 451.36"/><text class="cls-3" transform="matrix(1.21, -0.31, 0.25, 0.97, 297.23, 438.37)">WE ARE THE TEAM</text><text class="cls-4" transform="matrix(1.5, -0.1, 0.06, 0.83, 164.66, 397.14)">E</text><text class="cls-4" transform="translate(239.83 390.78) rotate(-10.86) scale(1.5 0.83)">L</text><text class="cls-4" transform="translate(308.47 377.01) rotate(-14.29) scale(1.5 0.83)">E</text><text class="cls-4" transform="translate(377.8 358.95) rotate(-14.71) scale(1.5 0.83)">C</text><text class="cls-4" transform="matrix(1.46, -0.32, 0.18, 0.81, 457.63, 338.29)">-</text><text class="cls-4" transform="translate(504.48 328.23) rotate(-9.51) scale(1.5 0.83)">I</text><text class="cls-4" transform="translate(542.46 320.53) rotate(-2.78) scale(1.5 0.83)">N</text></g></g></svg>